<svg width="24" height="24" viewBox="0 0 24 24" fill="none" xmlns="http://www.w3.org/2000/svg">
  <path d="M12 10.8c-1.087-2.114-4.046-6.053-6.798-7.995C2.566.944 1.561 1.266.902 1.565.139 1.908 0 3.08 0 3.768c0 .69.378 5.65.624 6.479.815 2.736 3.713 3.66 6.383 3.364.136-.02.275-.038.415-.055-2.36.257-5.417 1.085-5.417 3.527 0 3.06 7.128 3.925 8.988 3.925.503 0 1.007-.01 1.507-.028.5.018 1.004.028 1.507.028 1.86 0 8.988-.866 8.988-3.925 0-2.442-3.057-3.27-5.417-3.527.14.017.279.036.415.055 2.67.296 5.568-.628 6.383-3.364.246-.828.624-5.789.624-6.478 0-.69-.139-1.861-.902-2.206-.659-.298-1.664-.62-4.3 1.24C16.046 4.748 13.087 8.687 12 10.8z" fill="currentColor"/>
</svg>
